{"title":"Teen Wolf S03E12 720P Lunar Ellipse","uid":8819134,"size":968423000,"categoryP":"video","categoryS":"hd___tv_shows","magnet":"?xt=urn:btih:a5caea7b895b1e5f9d637c683c8bf19ec7a82213&amp;dn=Teen+Wolf+S03E12+720P+Lunar+Ellipse&amp;tr=udp%3A%2F%2Ftracker.openbittorrent.com%3A80&amp;tr=udp%3A%2F%2Fopen.demonii.com%3A1337&amp;tr=udp%3A%2F%2Ftracker.coppersurfer.tk%3A6969&amp;tr=udp%3A%2F%2Fexodus.desync.com%3A6969","seeders":4,"leechers":0,"uploader":"jmanwf","files":1,"time":1376613033,"description":"Under Deaton's advice, Scott and his friends use an ancient but extremely dangerous \n\nritual to help them both save the lives of the people they love and stop Deucalion \n\nfrom achieving his sinister goal.\n\n\n\nFormat                                   : MPEG-4\nFormat profile                           : Base Media\nCodec ID                                 : isom\nFile size                                : 924 MiB\nDuration                                 : 41mn 58s\nOverall bit rate mode                    : Variable\nOverall bit rate                         : 3 076 Kbps\nMovie name                               : Lunar Ellipse\nAlbum                                    : Teen Wolf\nAlbum/Performer                          : Teen Wolf\nPart/Position                            : 1\nPart/Total                               : 1\nTrack name/Position                      : 12\nPerformer                                : Teen Wolf\nGenre                                    : Sci-Fi &amp; Fantasy\nRecorded date                            : UTC 2013-08-12 07:00:00\nTagged date                              : UTC 2013-08-16 10:25:59\nCover                                    : Yes\ndesc                                     : Under Deaton's advice, Scott and his friends use an ancient but extremely dangerous ritual to help \nldes                                     : Under Deaton's advice, Scott and his friends use an ancient but extremely dangerous ritual to help them both save the lives of the people they love and stop Deucalion from achieving his sinister goal.\n\nVideo\nID                                       : 1\nFormat                                   : AVC\nFormat/Info                              : Advanced Video Codec\nFormat profile                           : &lt;a class=&quot;__cf_email__&quot; href=&quot;/cdn-cgi/l/email-protection&quot; data-cfemail=&quot;f9bb988a9c9590979cb9b5cad7c9&quot;&gt;[email&amp;#160;protected]&lt;/a&gt;&lt;script cf-hash='f9e31' type=&quot;text/javascript&quot;&gt;\n/* &lt;![CDATA[ */!function(){try{var t=&quot;currentScript&quot;in document?document.currentScript:function(){for(var t=document.getElementsByTagName(&quot;script&quot;),e=t.length;e--;)if(t[e].getAttribute(&quot;cf-hash&quot;))return t[e]}();if(t&amp;&amp;t.previousSibling){var e,r,n,i,c=t.previousSibling,a=c.getAttribute(&quot;data-cfemail&quot;);if(a){for(e=&quot;&quot;,r=parseInt(a.substr(0,2),16),n=2;a.length-n;n+=2)i=parseInt(a.substr(n,2),16)^r,e+=String.fromCharCode(i);e=document.createTextNode(e),c.parentNode.replaceChild(e,c)}}}catch(u){}}();/* ]]&gt; */&lt;/script&gt;\nFormat settings, CABAC                   : No\nFormat settings, ReFrames                : 3 frames\nCodec ID                                 : avc1\nCodec ID/Info                            : Advanced Video Coding\nDuration                                 : 41mn 56s\nBit rate                                 : 2 946 Kbps\nWidth                                    : 1 280 pixels\nHeight                                   : 718 pixels\nDisplay aspect ratio                     : 16:9\nFrame rate mode                          : Constant\nFrame rate                               : 23.976 fps\nColor space                              : YUV\nChroma subsampling                       : 4:2:0\nBit depth                                : 8 bits\nScan type                                : Progressive\nBits/(Pixel*Frame)                       : 0.134\nStream size                              : 884 MiB (96%)\nWriting library                          : x264 core 102\n\n\nAudio\nID                                       : 2\nFormat                                   : AAC\nFormat/Info                              : Advanced Audio Codec\nFormat profile                           : LC\nCodec ID                                 : 40\nDuration                                 : 41mn 58s\nBit rate mode                            : Variable\nBit rate                                 : 128 Kbps\nMaximum bit rate                         : 221 Kbps\nChannel(s)                               : 2 channels\nChannel positions                        : Front: L R\nSampling rate                            : 48.0 KHz\nCompression mode                         : Lossy\nStream size                              : 38.4 MiB (4%)\nLanguage                                 : English\n\n\n\n\n\nAnd for all those who say this is face it is not it is available on itunes right now early release \n &lt;a href=&quot;\nhttps://itunes.apple.com/us/tv-season/teen-wolf-season-3-pt.-1/id643475147&quot; rel=&quot;nofollow&quot; target=&quot;_NEW&quot;&gt;\nhttps://itunes.apple.com/us/tv-season/teen-wolf-season-3-pt.-1/id643475147&lt;/a&gt;\n","torrent":{"xt":"urn:btih:a5caea7b895b1e5f9d637c683c8bf19ec7a82213","amp;dn":"Teen+Wolf+S03E12+720P+Lunar+Ellipse","amp;tr":["udp%3A%2F%2Ftracker.openbittorrent.com%3A80","udp%3A%2F%2Fopen.demonii.com%3A1337","udp%3A%2F%2Ftracker.coppersurfer.tk%3A6969","udp%3A%2F%2Fexodus.desync.com%3A6969"],"infoHash":"a5caea7b895b1e5f9d637c683c8bf19ec7a82213","infoHashBuffer":{"type":"Buffer","data":[165,202,234,123,137,91,30,95,157,99,124,104,60,139,241,158,199,168,34,19]},"announce":[],"urlList":[]}}